# xmcd
#
# Track frame offsets:
#	150
#	15090
#	28255
#	46005
#	58505
#	70022
#	81579
#	94857
#	105965
#	116835
#	136017
#	149980
#	164485
#	179230
#
# Disc length: 2542 seconds
#
# Revision: 4
# Processed by: cddbd v1.5.2PL0 Copyright (c) Steve Scherf et al.
# Submitted via: audiograbber 1.83.01
#
DISCID=c209ec0e
DTITLE=Kenny Rogers - For the Good Times
DYEAR=1995
DGENRE=Country
TTITLE0=for the good times
TTITLE1=ruby, don't take your love to town
TTITLE2=something's burning
TTITLE3=elvira
TTITLE4=a poem for my little lady
TTITLE5=always leaving always gone
TTITLE6=shine on ruby mountain
TTITLE7=homemade lies
TTITLE8=ticket to nowhere
TTITLE9=lay it down
TTITLE10=sunshine
TTITLE11=loser
TTITLE12=all god's lonely children
TTITLE13=what am i gonna do
EXTD=
EXTT0=
EXTT1=
EXTT2=
EXTT3=
EXTT4=
EXTT5=
EXTT6=
EXTT7=
EXTT8=
EXTT9=
EXTT10=
EXTT11=
EXTT12=
EXTT13=
PLAYORDER=
